<svg height="496pt" viewBox="0 -56 496 496" width="496pt" xmlns="http://www.w3.org/2000/svg"><path d="m240 216-14.558594 145.59375c-.816406 8.175781-7.699218 14.40625-15.921875 14.40625h-186.742187c-8.160156 0-14.777344-6.617188-14.777344-14.777344 0-.816406.0625-1.621094.199219-2.429687l45.570312-273.425781c1.285157-7.710938 7.964844-13.367188 15.78125-13.367188h356.890625c7.824219 0 14.496094 5.65625 15.78125 13.367188l45.570313 273.425781c.144531.808593.207031 1.613281.207031 2.429687 0 8.160156-6.617188 14.777344-14.777344 14.777344h-186.742187c-8.222657 0-15.105469-6.230469-15.921875-14.40625l-14.558594-145.59375zm0 0" fill="#ff826e"/><path d="m72 8h352v64h-352zm0 0" fill="#e6e9ed"/><path d="m72 8h352v32h-352zm0 0" fill="#aab2bd"/><path d="m488 361.222656c0-.816406-.0625-1.621094-.199219-2.429687l-45.570312-273.425781c-1.285157-7.710938-7.964844-13.367188-15.78125-13.367188h-26.25l47.800781 304h25.222656c8.160156 0 14.777344-6.617188 14.777344-14.777344zm0 0" fill="#fcd770"/><path d="m69.550781 72c-7.824219 0-14.496093 5.65625-15.78125 13.367188l-45.570312 273.425781c-.136719.808593-.199219 1.613281-.199219 2.429687 0 8.160156 6.617188 14.777344 14.777344 14.777344h25.222656l47.800781-304zm0 0" fill="#fcd770"/><g fill="#969faa"><path d="m104 8h32v32h-32zm0 0"/><path d="m168 8h32v32h-32zm0 0"/><path d="m232 8h32v32h-32zm0 0"/><path d="m296 8h32v32h-32zm0 0"/><path d="m360 8h32v32h-32zm0 0"/></g><path d="m360 344-40-48h80zm0 0" fill="#fcd770"/><path d="m96 312h48v32h-48zm0 0" fill="#fcd770"/><path d="m72 56h352v16h-352zm0 0" fill="#ccd1d9"/><path d="m495.6875 357.488281-45.574219-273.433593c-1.617187-9.734376-8.890625-17.152344-18.113281-19.335938v-64.71875h-368v64.71875c-9.222656 2.183594-16.496094 9.601562-18.121094 19.335938l-45.566406 273.433593c-.207031 1.222657-.3125 2.472657-.3125 3.734375 0 12.5625 10.214844 22.777344 22.777344 22.777344h186.742187c12.375 0 22.648438-9.289062 23.878907-21.609375l13.839843-138.390625h1.523438l13.832031 138.390625c1.238281 12.320313 11.511719 21.609375 23.886719 21.609375h186.742187c12.5625 0 22.777344-10.214844 22.777344-22.777344 0-1.261718-.105469-2.511718-.3125-3.734375zm-415.6875-293.488281v-16h336v16zm288-32v-16h16v16zm-16 0h-16v-16h16zm-32 0h-16v-16h16zm-32 0h-16v-16h16zm-32 0h-16v-16h16zm-32 0h-16v-16h16zm-32 0h-16v-16h16zm-32 0h-16v-16h16zm-32 0h-16v-16h16zm288 0h-16v-16h16zm-320-16v16h-16v-16zm-80 345.222656c0-.375.03125-.75.089844-1.117187l45.574218-273.433594c.648438-3.855469 3.96875-6.671875 7.886719-6.671875h16.890625l-45.28125 288h-18.382812c-3.738282 0-6.777344-3.039062-6.777344-6.777344zm262.519531-.421875-15.28125-152.800781h-13.085937c-16.144532-8.734375-26.152344-25.320312-26.152344-43.777344v-20.222656h-16v20.222656c0 20.074219 9.015625 38.417969 24.0625 50.753906l-14.582031 145.824219c-.410157 4.109375-3.832031 7.199219-7.960938 7.199219h-152.167969l45.289063-288h290.71875l45.289063 288h-152.167969c-4.128907 0-7.550781-3.097656-7.960938-7.199219zm194.703125 7.199219h-18.382812l-45.289063-288h16.890625c3.925782 0 7.246094 2.816406 7.886719 6.679688l45.574219 273.433593c.066406.367188.097656.734375.097656 1.109375 0 3.738282-3.039062 6.777344-6.777344 6.777344zm0 0"/><path d="m302.921875 288 57.078125 68.496094 57.078125-68.496094zm34.15625 16h45.832031l-22.910156 27.503906zm0 0"/><path d="m88 352h64v-48h-64zm16-32h32v16h-32zm0 0"/></svg>