<svg height="496pt" viewBox="0 0 496 496" width="496pt" xmlns="http://www.w3.org/2000/svg"><path d="m368 368c0 66.273438-53.726562 120-120 120s-120-53.726562-120-120 53.726562-120 120-120 120 53.726562 120 120zm0 0" fill="#e6e9ed"/><g fill="#656d78"><path d="m272 400h-48l-8-40 32-24 32 24zm0 0"/><path d="m152.0625 296.128906c-15.039062 20.046875-24.0625 44.878906-24.0625 71.871094l48-24zm0 0"/><path d="m146.617188 432c15.496093 24.488281 39.542968 42.96875 68.015624 51.199219l-14.632812-51.199219zm0 0"/><path d="m296 432-15.34375 51.382812c28.777344-8.136718 53.105469-26.6875 68.726562-51.382812zm0 0"/><path d="m328 344 40 24c0-26.984375-9.015625-51.808594-24.046875-71.847656zm0 0"/></g><path d="m456 8h-416c-17.671875 0-32 14.328125-32 32v208h32v-208h416v208h32v-208c0-17.671875-14.328125-32-32-32zm0 0" fill="#969faa"/><path d="m296 258.046875c-14.703125-6.421875-30.921875-10.046875-48-10.046875s-33.296875 3.625-48 10.046875v53.953125h96zm0 0" fill="#ccd1d9"/><path d="m248 136-56 64h24v96h64v-96h24zm0 0" fill="#fc6e51"/><path d="m496 40c0-22.054688-17.945312-40-40-40h-416c-22.054688 0-40 17.945312-40 40v216h186.105469c-39.984375 22.167969-66.105469 64.816406-66.105469 112 0 70.574219 57.425781 128 128 128s128-57.425781 128-128c0-47.183594-26.121094-89.832031-66.105469-112h186.105469zm-168.960938 312.753906 32.738282 19.636719c-.738282 18.753906-6.050782 36.304687-14.929688 51.609375h-44.847656l-19.457031-25.9375 6.386719-31.933594zm19.242188-38.296875c6.488281 11.878907 10.796875 24.992188 12.648438 38.765625l-21.3125-12.78125zm-80.839844 77.542969h-34.882812l-5.726563-28.625 23.167969-17.375 23.167969 17.375zm-69.441406 32h-44.847656c-8.816406-15.183594-14.113282-32.585938-14.914063-51.175781l40.121094-20.054688 32.648437 13.054688 6.449219 32.238281zm-59.097656-69.390625c1.839844-15.210937 6.753906-29.617187 14.203125-42.503906l14.160156 28.320312zm87.097656-66.609375v-96h-14.367188l38.367188-43.847656 38.367188 43.847656h-14.367188v96zm-108.6875-64 36.6875-36.6875 52.6875 52.6875h-73.375zm-6.625 16h-9.375l4.6875-4.6875zm-60.6875-83.3125v-57.375l8-8 36.6875 36.6875-36.6875 36.6875zm56-17.375 36.6875 36.6875-36.6875 36.6875-36.6875-36.6875zm344-40v57.375l-8 8-36.6875-36.6875 36.6875-36.6875zm-19.3125 76.6875-36.6875 36.6875-36.6875-36.6875 36.6875-36.6875zm-84.6875-11.3125-36.6875-36.6875 36.6875-36.6875 36.6875 36.6875zm-11.3125 11.3125-20.832031 20.832031-34.816407-39.792969.625.625 18.335938-18.351562zm-32 32-12.6875 12.6875v-12.6875zm-33.632812-62.367188-19.054688-21.785156-19.054688 21.777344-17.632812-17.625 36.6875-36.6875 36.6875 36.6875zm-48.671876 12.0625-34.238281 39.136719-20.832031-20.832031 36.6875-36.6875zm-10.382812 62.992188-12.6875-12.6875h12.6875zm-56-56-36.6875-36.6875 36.6875-36.6875 36.6875 36.6875zm192 22.625 36.6875 36.6875-16 16h-73.375zm48 48 4.6875 4.6875h-9.375zm11.3125-11.3125 36.6875-36.6875 8 8v44.6875h-28.6875zm44.6875-163.3125-8 8-20.6875-20.6875h28.6875zm-51.3125-12.6875 32 32-36.6875 36.6875-36.6875-36.6875 32-32zm-52.6875 20.6875-20.6875-20.6875h41.375zm-43.3125-20.6875 32 32-36.6875 36.6875-36.6875-36.6875 32-32zm-52.6875 20.6875-20.6875-20.6875h41.375zm-43.3125-20.6875 32 32-36.6875 36.6875-36.6875-36.6875 32-32zm-52.6875 20.6875-20.6875-20.6875h41.375zm-43.3125-20.6875 32 32-36.6875 36.6875-36.6875-36.6875 32-32zm-52.6875 20.6875-8-8v-12.6875h28.6875zm-8 126.625 8-8 36.6875 36.6875-16 16h-28.6875zm160 68.085938v40.601562h32v28l-25.199219 18.902344-33.007812-13.199219-20.304688-40.613281c12.136719-14.84375 28.023438-26.617188 46.511719-33.691406zm-45.664062 176.601562h31.632812l8.664062 30.304688c-15.648437-6.960938-29.410156-17.367188-40.296874-30.304688zm58.71875 36.585938-12.269532-42.96875 19.214844-25.617188h40l19.214844 25.625-12.269532 42.96875c-8.648437 2.140625-17.640624 3.40625-26.945312 3.40625s-18.296875-1.265625-26.945312-3.414062zm72.320312-6.28125 8.65625-30.304688h31.632812c-10.886718 12.9375-24.648437 23.34375-40.289062 30.304688zm41.632812-172.625-13.328124 39.992187-40.230469 13.40625-25.449219-19.078125v-28h32v-40.601562c18.734375 7.167968 34.808594 19.167968 47.007812 34.28125zm144.992188-57.679688h-16v-208h-432v208h-16v-200c0-13.230469 10.769531-24 24-24h416c13.230469 0 24 10.769531 24 24zm0 0"/></svg>