<svg height="496pt" viewBox="0 0 496 496" width="496pt" xmlns="http://www.w3.org/2000/svg"><path d="m208 328h-24c-4.414062 0-8-3.585938-8-8v-51.792969c0-21.429687 14.207031-40.261719 34.816406-46.152343l21.183594-6.054688h32l21.183594 6.054688c20.609375 5.890624 34.816406 24.722656 34.816406 46.152343v51.792969c0 4.414062-3.585938 8-8 8zm0 0" fill="#5cd6b3"/><path d="m208 328-16 160h32l16-104h16l16 104h32l-16-160zm0 0" fill="#fcd770"/><path d="m248 256c-30.871094 0-56 25.128906-56 56 0 5.558594.839844 10.929688 2.359375 16h107.28125c1.519531-5.070312 2.359375-10.441406 2.359375-16 0-30.871094-25.128906-56-56-56zm0 0" fill="#37bc9b"/><path d="m205.921875 348.824219c10.269531 11.71875 25.300781 19.175781 42.078125 19.175781s31.808594-7.457031 42.078125-19.175781l-2.078125-20.824219h-80zm0 0" fill="#ffc729"/><path d="m288 312c0 22.089844-17.910156 40-40 40s-40-17.910156-40-40 17.910156-40 40-40 40 17.910156 40 40zm0 0" fill="#e6e9ed"/><path d="m275.121094 282.753906c-11.242188 4.972656-19.121094 16.191406-19.121094 29.246094s7.878906 24.273438 19.121094 29.246094c7.871094-7.308594 12.878906-17.652344 12.878906-29.246094s-5.007812-21.9375-12.878906-29.246094zm0 0" fill="#ccd1d9"/><path d="m208 312c0 11.59375 5.007812 21.9375 12.878906 29.246094 11.242188-4.972656 19.121094-16.191406 19.121094-29.246094s-7.878906-24.273438-19.121094-29.246094c-7.871094 7.308594-12.878906 17.652344-12.878906 29.246094zm0 0" fill="#ccd1d9"/><path d="m320 320c0 4.414062-3.585938 8-8 8h-24c-8.839844 0-16-7.160156-16-16s7.160156-16 16-16h32zm0 0" fill="#f0d0b4"/><path d="m456 8h-416c-17.671875 0-32 14.328125-32 32v208h32v-208h416v208h32v-208c0-17.671875-14.328125-32-32-32zm0 0" fill="#969faa"/><path d="m176 320c0 4.414062 3.585938 8 8 8h24c8.839844 0 16-7.160156 16-16s-7.160156-16-16-16h-32zm0 0" fill="#f0d0b4"/><path d="m264 200v32c0 8.839844-7.160156 16-16 16s-16-7.160156-16-16v-32zm0 0" fill="#f0d0b4"/><path d="m232 229.640625c5.070312 1.519531 10.441406 2.359375 16 2.359375s10.929688-.839844 16-2.359375v-29.640625h-32zm0 0" fill="#ecc19c"/><path d="m248 216c-22.089844 0-40-17.910156-40-40v-16c0-22.089844 17.910156-40 40-40s40 17.910156 40 40v16c0 22.089844-17.910156 40-40 40zm0 0" fill="#f0d0b4"/><path d="m496 40c0-22.054688-17.945312-40-40-40h-416c-22.054688 0-40 17.945312-40 40v216h169.527344c-.894532 3.96875-1.527344 8.023438-1.527344 12.207031v51.792969c0 8.824219 7.175781 16 16 16h15.160156l-16 160h47.703125l16-104h2.273438l16 104h47.703125l-16-160h15.160156c8.824219 0 16-7.175781 16-16v-51.792969c0-4.183593-.632812-8.238281-1.527344-12.207031h169.527344zm-92.6875 184 36.6875-36.6875 8 8v44.6875h-28.6875zm-6.625 16h-9.375l4.6875-4.6875zm-109.304688-25.640625-7.871093-2.246094c10.082031-8.800781 16.488281-21.714843 16.488281-36.113281v-16c0-6.136719-1.199219-11.984375-3.304688-17.382812l3.304688-3.304688 36.6875 36.6875-40.261719 40.265625c-1.671875-.65625-3.289062-1.402344-5.042969-1.90625zm-83.808593 1.90625-40.261719-40.265625 36.6875-36.6875 3.304688 3.304688c-2.105469 5.398437-3.304688 11.246093-3.304688 17.382812v16c0 14.449219 6.441406 27.390625 16.574219 36.199219l-7.957031 2.167969c-1.753907.496093-3.371094 1.242187-5.042969 1.898437zm-155.574219-59.578125v-57.375l8-8 36.6875 36.6875-36.6875 36.6875zm56-17.375 36.6875 36.6875-36.6875 36.6875-36.6875-36.6875zm11.3125-11.3125 36.6875-36.6875 36.6875 36.6875-36.6875 36.6875zm132.6875 80c-17.648438 0-32-14.351562-32-32v-16c0-17.648438 14.351562-32 32-32s32 14.351562 32 32v16c0 17.648438-14.351562 32-32 32zm0-96c-14.425781 0-27.351562 6.425781-36.160156 16.527344l-.527344-.527344 36.6875-36.6875 36.6875 36.6875-.527344.527344c-8.808594-10.101563-21.734375-16.527344-36.160156-16.527344zm-8 112h16v8c0 4.40625-3.59375 8-8 8s-8-3.59375-8-8zm67.3125-96 36.6875-36.6875 36.6875 36.6875-36.6875 36.6875zm84.6875 11.3125 36.6875 36.6875-36.6875 36.6875-36.6875-36.6875zm56-40v57.375l-8 8-36.6875-36.6875 36.6875-36.6875zm0-38.625-8 8-20.6875-20.6875h28.6875zm-51.3125-12.6875 32 32-36.6875 36.6875-36.6875-36.6875 32-32zm-52.6875 20.6875-20.6875-20.6875h41.375zm-43.3125-20.6875 32 32-36.6875 36.6875-36.6875-36.6875 32-32zm-52.6875 20.6875-20.6875-20.6875h41.375zm-43.3125-20.6875 32 32-36.6875 36.6875-36.6875-36.6875 32-32zm-52.6875 20.6875-20.6875-20.6875h41.375zm-43.3125-20.6875 32 32-36.6875 36.6875-36.6875-36.6875 32-32zm-52.6875 20.6875-8-8v-12.6875h28.6875zm-8 126.625 8-8 36.6875 36.6875-16 16h-28.6875zm56 40 4.6875 4.6875h-9.375zm27.3125 4.6875-16-16 36.6875-36.6875 37.246094 37.246094c-5.382813 4.3125-9.925782 9.519531-13.40625 15.433594h-44.527344zm52.6875 64h24c4.40625 0 8 3.59375 8 8s-3.59375 8-8 8h-24zm89.601562 27.078125c-5.953124 7.992187-15.328124 12.921875-25.601562 12.921875-10.222656 0-19.632812-4.945312-25.59375-12.929688 5.785156-4.382812 9.59375-11.261718 9.59375-19.070312 0-7.816406-3.808594-14.695312-9.601562-19.078125 5.953124-7.992187 15.328124-12.921875 25.601562-12.921875 10.265625 0 19.648438 4.929688 25.601562 12.921875-5.792968 4.382813-9.601562 11.269531-9.601562 19.078125 0 7.816406 3.808594 14.695312 9.601562 19.078125zm5.261719 148.921875-16-104h-29.726562l-16 104h-16.296875l13.40625-134.046875c8.84375 8.773437 20.859375 14.046875 33.753906 14.046875 12.953125 0 24.945312-5.246094 33.761719-14.015625l13.398437 134.015625zm33.136719-160h-24c-4.40625 0-8-3.59375-8-8s3.59375-8 8-8h24zm0-32h-22.511719c-8.511719-14.71875-24.183593-24-41.488281-24-17.320312 0-33 9.28125-41.496094 24h-22.503906v-19.792969c0-17.765625 11.929688-33.582031 29.007812-38.464843l10.992188-3.132813v5.390625c0 13.230469 10.769531 24 24 24s24-10.769531 24-24v-5.390625l10.992188 3.132813c17.078124 4.882812 29.007812 20.699218 29.007812 38.464843zm-5.246094-63.433594 37.246094-37.253906 36.6875 36.6875-16 16h-44.535156c-3.480469-5.921875-8.023438-11.128906-13.398438-15.433594zm173.246094 15.433594h-16v-208h-432v208h-16v-200c0-13.230469 10.769531-24 24-24h416c13.230469 0 24 10.769531 24 24zm0 0"/></svg>