<svg height="496pt" viewBox="-96 0 496 496" width="496pt" xmlns="http://www.w3.org/2000/svg"><g fill="#fcd770"><path d="m192 88 48-64h8l48 40v8l-48 64zm0 0"/><path d="m112 88-48-64h-8l-48 40v8l48 64zm0 0"/><path d="m120 56v-32s8-16 32-16 32 16 32 16v32zm0 0"/></g><path d="m21.761719 90.351562 34.238281 45.648438 56-48-34.34375-45.792969c-25.496094 6.015625-46.304688 24.21875-55.894531 48.144531zm0 0" fill="#ffc729"/><path d="m192 88 56 48 34.238281-45.648438c-9.589843-23.917968-30.390625-42.128906-55.894531-48.144531zm0 0" fill="#ffc729"/><path d="m208 56h-112c-35.34375 0-64 28.65625-64 64v128c0 44.183594 35.816406 80 80 80h80c44.183594 0 80-35.816406 80-80v-128c0-35.34375-28.65625-64-64-64zm0 0" fill="#656d78"/><path d="m200 312c0-17.648438-14.351562-32-32-32h-32c-17.648438 0-32 14.351562-32 32v15.601562c2.632812.261719 5.296875.398438 8 .398438h80c2.703125 0 5.367188-.144531 8-.398438zm0 0" fill="#5b6570"/><path d="m120 40h64v16h-64zm0 0" fill="#ffc729"/><path d="m168 376h-32c-8.839844 0-16-7.160156-16-16v-48c0-8.839844 7.160156-16 16-16h32c8.839844 0 16 7.160156 16 16v48c0 8.839844-7.160156 16-16 16zm0 0" fill="#48cfad"/><path d="m200 248h-96c-22.089844 0-40-17.910156-40-40v-80c0-22.089844 17.910156-40 40-40h96c22.089844 0 40 17.910156 40 40v80c0 22.089844-17.910156 40-40 40zm0 0" fill="#969faa"/><path d="m96 120h112v96h-112zm0 0" fill="#69d6f4"/><path d="m208 216h-48l16-96h32zm0 0" fill="#4fc1e9"/><path d="m304 60.257812-53.105469-44.257812h-14.894531l-24.144531 32.191406c-1.289063-.0625-2.550781-.191406-3.855469-.191406h-16v-25.886719l-.839844-1.6875c-.417968-.832031-10.542968-20.425781-39.160156-20.425781s-38.742188 19.59375-39.160156 20.425781l-.839844 1.6875v25.886719h-16c-1.304688 0-2.566406.128906-3.855469.191406l-24.144531-32.191406h-14.894531l-53.105469 44.257812v14.414063l25.070312 33.425781c-.65625 3.878906-1.070312 7.839844-1.070312 11.902344v128c0 48.519531 39.480469 88 88 88v18.902344c-24.703125 14.3125-40 40.355468-40 69.097656v72h16v-72c0-21.089844 10.222656-40.441406 27.152344-52.335938 4.121094 7.320313 11.871094 12.335938 20.847656 12.335938h32c8.96875 0 16.710938-5.007812 20.832031-12.3125 16.945313 11.878906 27.167969 31.144531 27.167969 52.3125v72h16v-72c0-28.855469-15.28125-54.785156-40-69.078125v-18.921875c48.519531 0 88-39.480469 88-88v-128c0-4.0625-.414062-8.023438-1.070312-11.910156l25.070312-33.425782zm-176-33.9375c2.296875-3.097656 9.230469-10.320312 24-10.320312 14.824219 0 21.761719 7.28125 24 10.304688v21.695312h-48zm-112 43.015626v-1.59375l42.894531-35.742188h1.105469l14.472656 19.296875c-19.25 6.039063-34.960937 20-43.496094 38zm160 290.664062c0 4.414062-3.585938 8-8 8h-32c-4.414062 0-8-3.585938-8-8v-48c0-4.414062 3.585938-8 8-8h32c4.414062 0 8 3.585938 8 8zm88-112c0 39.703125-32.296875 72-72 72v-8c0-13.230469-10.769531-24-24-24h-32c-13.230469 0-24 10.769531-24 24v8c-39.703125 0-72-32.296875-72-72v-128c0-30.878906 25.128906-56 56-56h112c30.871094 0 56 25.121094 56 56zm24-178.664062-14.96875 19.96875c-8.535156-18-24.253906-31.960938-43.496094-38l14.464844-19.304688h1.105469l42.894531 35.742188zm0 0"/><path d="m200 80h-96c-26.472656 0-48 21.527344-48 48v80c0 26.472656 21.527344 48 48 48h96c26.472656 0 48-21.527344 48-48v-80c0-26.472656-21.527344-48-48-48zm32 128c0 17.648438-14.351562 32-32 32h-96c-17.648438 0-32-14.351562-32-32v-80c0-17.648438 14.351562-32 32-32h96c17.648438 0 32 14.351562 32 32zm0 0"/><path d="m88 224h128v-112h-128zm16-96h96v80h-96zm0 0"/></svg>