<svg height="496pt" viewBox="-96 0 496 496" width="496pt" xmlns="http://www.w3.org/2000/svg"><path d="m8 168v48c17.671875 0 32 14.328125 32 32s-14.328125 32-32 32v160c0 26.511719 21.488281 48 48 48h112c26.511719 0 48-21.488281 48-48v-160c-17.671875 0-32-14.328125-32-32s14.328125-32 32-32v-48c0-35.34375-28.65625-64-64-64h-80c-35.34375 0-64 28.65625-64 64zm0 0" fill="#e6e9ed"/><path d="m96 8h32v64h-32zm0 0" fill="#fcd770"/><path d="m72 72h80v32h-80zm0 0" fill="#e6e9ed"/><path d="m56 488h112c26.511719 0 48-21.488281 48-48h-208c0 26.511719 21.488281 48 48 48zm0 0" fill="#37bc9b"/><path d="m10.097656 152c-1.320312 5.121094-2.097656 10.464844-2.097656 16v48c17.671875 0 32 14.328125 32 32s-14.328125 32-32 32v32h208v-32c-17.671875 0-32-14.328125-32-32s14.328125-32 32-32v-48c0-5.535156-.777344-10.878906-2.097656-16zm0 0" fill="#37bc9b"/><path d="m115.152344 280h-6.3125c-20.34375 0-36.839844-16.496094-36.839844-36.847656 0-7.273438 2.152344-14.382813 6.191406-20.441406l21.375-32.0625c2.769532-4.152344 7.433594-6.648438 12.433594-6.648438s9.664062 2.496094 12.441406 6.65625l21.375 32.0625c4.03125 6.050781 6.183594 13.160156 6.183594 20.433594 0 20.351562-16.496094 36.847656-36.847656 36.847656zm0 0" fill="#48cfad"/><path d="m72 88h80v16h-80zm0 0" fill="#ccd1d9"/><path d="m96 56h32v16h-32zm0 0" fill="#ffc729"/><path d="m96 16h32v16h-32zm0 0" fill="#ffc729"/><path d="m131.097656 186.214844c-4.273437-6.390625-11.410156-10.214844-19.097656-10.214844s-14.824219 3.824219-19.097656 10.214844l-21.375 32.066406c-4.917969 7.390625-7.527344 15.992188-7.527344 24.878906 0 24.71875 20.121094 44.839844 44.839844 44.839844h6.3125c24.726562 0 44.847656-20.121094 44.847656-44.839844 0-8.878906-2.609375-17.488281-7.527344-24.871094zm-15.9375 85.785156h-6.3125c-15.910156 0-28.847656-12.9375-28.847656-28.839844 0-5.710937 1.671875-11.238281 4.839844-16l21.375-32.0625c1.296875-1.9375 3.457031-3.097656 5.785156-3.097656s4.488281 1.160156 5.785156 3.097656l21.375 32.0625c3.167969 4.761719 4.839844 10.289063 4.839844 16 0 15.902344-12.9375 28.839844-28.839844 28.839844zm0 0"/><path d="m232 32h-96v-16h16v-16h-80v16h16v48h-24v32.472656c-35.945312 3.992188-64 34.527344-64 71.527344v56h8c13.230469 0 24 10.769531 24 24s-10.769531 24-24 24h-8v168c0 30.871094 25.121094 56 56 56h112c30.878906 0 56-25.128906 56-56v-168h-8c-13.230469 0-24-10.769531-24-24s10.769531-24 24-24h8v-48h8c39.695312 0 72-32.296875 72-72s-32.304688-72-72-72zm-128-16h16v48h-16zm40 64v16h-64v-16zm-72 32h80c22.28125 0 41.511719 13.113281 50.519531 32h-181.039062c9.007812-18.886719 28.238281-32 50.519531-32zm-56 320v-112h192v112zm152 48h-112c-19.3125 0-35.472656-13.769531-39.191406-32h190.382812c-3.71875 18.230469-19.878906 32-39.191406 32zm40-271.191406c-18.230469 3.71875-32 19.871094-32 39.191406s13.769531 35.480469 32 39.191406v16.808594h-192v-16.808594c18.230469-3.71875 32-19.871094 32-39.191406s-13.769531-35.480469-32-39.191406v-40.808594c0-2.71875.265625-5.375.640625-8h190.71875c.375 2.625.640625 5.28125.640625 8zm24-48.808594h-8.472656c-3.703125-33.320312-30.214844-59.824219-63.527344-63.527344v-32.472656h-24v-16h96c30.878906 0 56 25.128906 56 56s-25.121094 56-56 56zm0 0"/><path d="m32 336h16v16h-16zm0 0"/><path d="m32 400h16v16h-16zm0 0"/><path d="m176 336h16v16h-16zm0 0"/><path d="m176 400h16v16h-16zm0 0"/></svg>