<svg height="496pt" viewBox="-96 0 496 496" width="496pt" xmlns="http://www.w3.org/2000/svg"><path d="m200 56c0-26.511719-21.488281-48-48-48s-48 21.488281-48 48v16h96zm0 0" fill="#656d78"/><path d="m200 56c0-5.449219-.953125-10.65625-2.625-15.535156-14.128906-5.386719-29.382812-8.464844-45.375-8.464844s-31.246094 3.078125-45.375 8.464844c-1.671875 4.878906-2.625 10.085937-2.625 15.535156v16h96zm0 0" fill="#51565b"/><path d="m40 216v-56c0-61.855469 50.144531-112 112-112s112 50.144531 112 112v56zm0 0" fill="#656d78"/><path d="m64 488h-56v-100.601562c0-21.328126 13.136719-40.445313 33.039062-48.101563l70.960938-27.296875v-24h80v24l70.960938 27.296875c19.902343 7.65625 33.039062 26.773437 33.039062 48.101563v100.601562zm0 0" fill="#f0d0b4"/><path d="m48 440h16v48h-16zm0 0" fill="#ecc19c"/><path d="m240 440h16v48h-16zm0 0" fill="#ecc19c"/><path d="m240 400v-24h-176v24c-10.246094 10.246094-16 24.136719-16 38.625v2.742188c0 14.488281 5.753906 28.386718 16 38.625v8h176v-8c10.246094-10.25 16-24.136719 16-38.625v-2.742188c0-14.488281-5.753906-28.378906-16-38.625zm0 0" fill="#ff826e"/><path d="m112 311.160156c12.191406 5.617188 25.710938 8.839844 40 8.839844s27.808594-3.222656 40-8.839844v-23.160156h-80zm0 0" fill="#ecc19c"/><path d="m232 160v64c0 44.183594-35.816406 80-80 80s-80-35.816406-80-80v-64l1.585938-1.585938c9.230468-9.230468 21.75-14.414062 34.796874-14.414062 7.640626 0 15.175782 1.777344 22.007813 5.191406l21.609375 10.808594 21.609375-10.808594c6.832031-3.414062 14.367187-5.191406 22.007813-5.191406 13.046874 0 25.566406 5.183594 34.796874 14.414062zm0 0" fill="#f0d0b4"/><path d="m72 248c-17.671875 0-32-14.328125-32-32s14.328125-32 32-32h160c17.671875 0 32 14.328125 32 32s-14.328125 32-32 32zm0 0" fill="#f0d0b4"/><path d="m240 376v-45.535156l-48-18.464844c0 19.855469-10.414062 38.246094-27.441406 48.464844l-12.558594 7.535156-12.558594-7.535156c-17.027344-10.21875-27.441406-28.609375-27.441406-48.464844l-48 18.464844v45.535156l88 48zm0 0" fill="#fcd770"/><path d="m112 184c0 4.417969-3.582031 8-8 8s-8-3.582031-8-8 3.582031-8 8-8 8 3.582031 8 8zm0 0"/><path d="m208 184c0 4.417969-3.582031 8-8 8s-8-3.582031-8-8 3.582031-8 8-8 8 3.582031 8 8zm0 0"/><path d="m208 224h-16c0 22.054688-17.945312 40-40 40s-40-17.945312-40-40h-16c0 30.878906 25.121094 56 56 56s56-25.121094 56-56zm0 0"/><path d="m265.832031 331.832031-65.832031-25.328125v-8.839844c15.289062-10 27.246094-24.617187 33.960938-41.855468 21.128906-1.054688 38.039062-18.425782 38.039062-39.808594v-56c0-45.984375-26.03125-85.960938-64.105469-106.105469-1.117187-29.894531-25.726562-53.894531-55.894531-53.894531s-54.777344 24-55.894531 53.894531c-38.074219 20.144531-64.105469 60.121094-64.105469 106.105469v56c0 21.382812 16.910156 38.753906 38.039062 39.800781 6.714844 17.246094 18.671876 31.863281 33.960938 41.855469v8.839844l-65.832031 25.328125c-22.832031 8.785156-38.167969 31.113281-38.167969 55.574219v108.601562h304v-108.601562c0-24.460938-15.335938-46.789063-38.167969-55.566407zm-33.710937 4.167969h-.121094v35.246094l-80 43.640625-80-43.640625v-35.246094h-.121094l33.242188-12.785156c3.253906 18.160156 14.144531 34.472656 30.199218 44.105468l16.679688 10.007813 16.671875-10c16.0625-9.640625 26.945313-25.945313 30.199219-44.105469zm6.511718-97.046875c.839844-4.875 1.367188-9.847656 1.367188-14.953125v-30.527344c9.289062 3.3125 16 12.113282 16 22.527344 0 10.921875-7.375 20.054688-17.367188 22.953125zm-86.632812-222.953125c18.785156 0 34.472656 13.0625 38.753906 30.542969-12.179687-4.175781-25.1875-6.542969-38.753906-6.542969s-26.574219 2.367188-38.753906 6.542969c4.28125-17.480469 19.96875-30.542969 38.753906-30.542969zm0 40c57.34375 0 104 46.65625 104 104v24.207031c-4.671875-3.535156-10.054688-6.183593-16-7.390625v-20.121094l-3.929688-3.925781c-10.804687-10.816406-25.175781-16.769531-40.453124-16.769531-8.839844 0-17.6875 2.089844-25.585938 6.039062l-18.03125 9.015626-18.03125-9.015626c-7.898438-3.949218-16.746094-6.039062-25.585938-6.039062-15.277343 0-29.648437 5.953125-40.453124 16.761719l-3.929688 3.925781v20.121094c-5.945312 1.214844-11.328125 3.855468-16 7.390625v-24.199219c0-57.34375 46.65625-104 104-104zm-104 160c0-10.414062 6.710938-19.214844 16-22.527344v30.527344c0 5.105469.527344 10.078125 1.367188 14.953125-9.992188-2.898437-17.367188-12.03125-17.367188-22.953125zm32 8v-60.664062c7.6875-7.320313 17.726562-11.335938 28.382812-11.335938 6.371094 0 12.738282 1.503906 18.433594 4.351562l25.183594 12.59375 25.183594-12.59375c5.695312-2.847656 12.0625-4.351562 18.433594-4.351562 10.65625 0 20.6875 4.015625 28.382812 11.335938v60.664062c0 39.695312-32.304688 72-72 72s-72-32.304688-72-72zm72 88c11.296875 0 22.0625-2.214844 32-6.113281v6.113281c0 16.945312-9.023438 32.886719-23.558594 41.609375l-8.441406 5.0625-8.441406-5.0625c-14.535156-8.722656-23.558594-24.664063-23.558594-41.609375v-6.113281c9.9375 3.898437 20.703125 6.113281 32 6.113281zm-136 75.398438c0-17.886719 11.214844-34.214844 27.910156-40.636719l12.089844-4.648438v54.703125c-10.34375 11.503906-16 26.222656-16 41.816406v2.742188c0 14.199219 4.734375 27.640625 13.382812 38.632812h-37.382812zm218.34375 86.945312-2.34375 2.34375v3.3125h-160v-3.3125l-2.34375-2.34375c-8.808594-8.808594-13.65625-20.511719-13.65625-32.976562v-2.742188c0-12.457031 4.847656-24.167969 13.65625-32.976562l2.34375-2.335938v-13.832031l80 43.640625 80-43.640625v13.832031l2.34375 2.34375c8.808594 8.808594 13.65625 20.511719 13.65625 32.976562v2.742188c0 12.457031-4.847656 24.160156-13.65625 32.96875zm53.65625 5.65625h-37.382812c8.648437-10.984375 13.382812-24.433594 13.382812-38.632812v-2.742188c0-15.59375-5.65625-30.3125-16-41.816406v-54.703125l12.089844 4.648437c16.695312 6.421875 27.910156 22.757813 27.910156 40.644532zm0 0"/></svg>