<svg height="496pt" viewBox="-80 0 496 496" width="496pt" xmlns="http://www.w3.org/2000/svg"><path d="m258.574219 318.742188-50.574219-6.742188h-2.390625c-3.960937 13.390625-12.746094 25.078125-25.050781 32.464844l-12.558594 7.535156-12.558594-7.535156c-12.304687-7.386719-21.089844-19.074219-25.050781-32.464844h-2.390625l-50.574219 6.742188c-39.746093 5.296874-69.425781 39.203124-69.425781 79.296874v73.960938h320v-73.960938c0-40.09375-29.679688-74-69.425781-79.296874zm0 0" fill="#48cfad"/><path d="m128 296v-24h80v24c0 19.855469-10.414062 38.246094-27.441406 48.464844l-12.558594 7.535156-12.558594-7.535156c-17.027344-10.21875-27.441406-28.609375-27.441406-48.464844zm0 0" fill="#f0d0b4"/><path d="m248 320 .847656-2.550781-40.847656-5.449219h-2.390625c-3.960937 13.390625-12.746094 25.078125-25.050781 32.464844l-12.558594 7.535156 56 32zm0 0" fill="#e6e9ed"/><path d="m155.441406 344.464844c-12.304687-7.386719-21.089844-19.074219-25.050781-32.464844h-2.390625l-40.847656 5.449219.847656 2.550781 24 64 56-32zm0 0" fill="#e6e9ed"/><path d="m168 400c-13.257812 0-24 10.742188-24 24 0 10.433594 6.695312 19.222656 16 22.527344v41.472656h32v-64c0-13.257812-10.742188-24-24-24zm0 0" fill="#ff826e"/><path d="m280 472v-80l16 80zm0 0" fill="#37bc9b"/><path d="m56 472v-80l-16 80zm0 0" fill="#37bc9b"/><path d="m128 296c0 5.855469 1.007812 11.542969 2.71875 16.976562 11.59375 4.472657 24.128906 7.023438 37.28125 7.023438s25.6875-2.550781 37.28125-7.023438c1.710938-5.433593 2.71875-11.121093 2.71875-16.976562v-24h-80zm0 0" fill="#ecc19c"/><path d="m48 112h240v104h-240zm0 0" fill="#dfb28b"/><path d="m48 142.152344c18.648438 15.855468 58.519531 41.847656 120 41.847656s101.351562-25.992188 120-41.847656v-30.152344h-240zm0 0" fill="#cf9e76"/><path d="m80 184c-17.671875 0-32 14.328125-32 32s14.328125 32 32 32h176c17.671875 0 32-14.328125 32-32s-14.328125-32-32-32zm0 0" fill="#f0d0b4"/><path d="m80 144v72c0 48.601562 39.398438 88 88 88s88-39.398438 88-88v-72zm0 0" fill="#f0d0b4"/><path d="m80 163.390625c21.496094 11.058594 50.785156 20.609375 88 20.609375s66.503906-9.550781 88-20.609375v-19.390625h-176zm0 0" fill="#ecc19c"/><path d="m176 8h-16c-61.855469 0-112 50.144531-112 112 0 0 40 48 120 48s120-48 120-48c0-61.855469-50.144531-112-112-112zm0 0" fill="#e6e9ed"/><path d="m176 8h-16c-61.855469 0-112 50.144531-112 112h240c0-61.855469-50.144531-112-112-112zm0 0" fill="#fcd770"/><path d="m120 120c0-80 48-112 48-112s48 32 48 112zm0 0" fill="#ff826e"/><path d="m336 398.039062c0-43.917968-32.832031-81.421874-76.367188-87.230468l-44.296874-5.90625c.273437-1.902344.359374-3.839844.457031-5.765625 17.191406-9.929688 31.007812-25 39.359375-43.136719h.847656c22.054688 0 40-17.945312 40-40v-104h-.40625c-4.144531-62.441406-56.128906-112-119.59375-112h-16c-63.464844 0-115.449219 49.558594-119.59375 112h-.40625v104c0 22.054688 17.945312 40 40 40h.839844c8.359375 18.136719 22.167968 33.207031 39.359375 43.136719.097656 1.933593.183593 3.871093.457031 5.765625l-44.296875 5.90625c-43.527344 5.816406-76.359375 43.3125-76.359375 87.230468v81.960938h152v16h48v-16h136zm-98.070312-73.976562-18.121094 48.328125-35.976563-20.558594.847657-.503906c12.03125-7.214844 21.214843-18.167969 26.441406-30.839844zm-53.777344 72.472656c-4.761719-2.816406-10.230469-4.535156-16.152344-4.535156s-11.390625 1.71875-16.152344 4.535156l-16.601562-16.597656 32.65625-18.664062.097656.054687.097656-.054687 32.65625 18.664062zm-112.152344-219.726562c-5.945312 1.214844-11.328125 3.855468-16 7.390625v-45.734375c4.320312 3.496094 9.6875 7.367187 16 11.277344zm-3.207031-48.808594h198.527343c-17.441406 13.320312-50.550781 32-99.3125 32-48.503906 0-81.6875-18.679688-99.214843-32zm99.183593-109.792969c10.710938 9.449219 37.3125 38.519531 39.726563 93.792969h-79.421875c2.398438-55.625 28.886719-84.382812 39.695312-93.792969zm112.023438 120.257813v45.734375c-4.671875-3.535157-10.054688-6.183594-16-7.390625v-27.066406c6.3125-3.910157 11.679688-7.78125 16-11.277344zm-19.023438 101c1.902344-7.519532 3.023438-15.359375 3.023438-23.464844v-22.527344c9.289062 3.3125 16 12.113282 16 22.527344 0 11.527344-8.167969 21.167969-19.023438 23.464844zm18.589844-127.464844h-55.863281c-1.902344-48.007812-20.289063-78.550781-34.574219-95.070312 48.542969 6.148437 86.65625 45.839843 90.4375 95.070312zm-132.695312-95.070312c-14.285156 16.519531-32.671875 47.0625-34.574219 95.070312h-55.863281c3.78125-49.230469 41.894531-88.921875 90.4375-95.070312zm-90.871094 199.070312c0-10.414062 6.710938-19.214844 16-22.527344v22.527344c0 8.105469 1.121094 15.945312 3.023438 23.464844-10.855469-2.296875-19.023438-11.9375-19.023438-23.464844zm32 0v-57.550781c20.070312 9.597656 46.632812 17.550781 80 17.550781s59.929688-7.953125 80-17.550781v57.550781c0 44.113281-35.886719 80-80 80s-80-35.886719-80-80zm80 96c10.734375 0 21.023438-1.847656 30.671875-5.113281-2.953125 12.664062-10.871094 23.90625-22.222656 30.722656l-8.449219 5.0625-8.441406-5.0625c-11.351563-6.816406-19.269532-18.058594-22.222656-30.722656 9.640624 3.265625 19.929687 5.113281 30.664062 5.113281zm-16.671875 39.328125.847656.503906-35.976562 20.558594-18.121094-48.328125 26.816406-3.574219c5.21875 12.671875 14.402344 23.617188 26.433594 30.839844zm-87.328125 112.671875v-72h-16v72h-32v-65.960938c0-35.933593 26.863281-66.625 62.488281-71.367187l3.304688-.441406 26.015625 69.378906 13.039062-7.449219 19.6875 19.6875c-2.816406 4.761719-4.535156 10.230469-4.535156 16.152344 0 11.480469 6.238281 21.96875 16 27.609375v12.390625zm120 16h-16v-39.113281l-5.320312-1.894531c-6.382813-2.273438-10.679688-8.296876-10.679688-14.992188 0-8.824219 7.175781-16 16-16s16 7.175781 16 16zm136-16h-32v-72h-16v72h-72v-40c0-5.921875-1.71875-11.390625-4.535156-16.152344l19.6875-19.6875 13.039062 7.449219 26.015625-69.378906 3.304688.441406c35.625 4.753906 62.488281 35.433594 62.488281 71.367187zm0 0"/><path d="m152 80h32v16h-32zm0 0"/><path d="m216 232h-16c0 17.648438-14.351562 32-32 32s-32-14.351562-32-32h-16c0 26.472656 21.527344 48 48 48s48-21.527344 48-48zm0 0"/><path d="m128 184c0 4.417969-3.582031 8-8 8s-8-3.582031-8-8 3.582031-8 8-8 8 3.582031 8 8zm0 0"/><path d="m224 184c0 4.417969-3.582031 8-8 8s-8-3.582031-8-8 3.582031-8 8-8 8 3.582031 8 8zm0 0"/></svg>