<svg height="496pt" viewBox="-80 0 496 496" width="496pt" xmlns="http://www.w3.org/2000/svg"><path d="m288 216v-88c0-66.273438-53.726562-120-120-120s-120 53.726562-120 120v88zm0 0" fill="#656d78"/><path d="m208 312 72.488281 19.328125c28.015625 7.472656 47.511719 32.847656 47.511719 61.839844v94.832031h-320v-94.832031c0-28.992188 19.496094-54.367188 47.511719-61.839844l72.488281-19.328125zm0 0" fill="#fcd770"/><path d="m280 488-16-96v96zm0 0" fill="#ffc729"/><path d="m56 488 16-96v96zm0 0" fill="#ffc729"/><path d="m72 440h-64v48h64zm0 0" fill="#f0d0b4"/><path d="m56 488h16v-48h-8zm0 0" fill="#ecc19c"/><path d="m277.441406 371.847656 18.558594-27.847656 2.945312-4.414062c-5.570312-3.632813-11.761718-6.464844-18.457031-8.25l-72.488281-19.335938h-80l-72.488281 19.328125c-8.976563 2.390625-17.0625 6.648437-23.9375 12.246094l.425781.425781 21.457031 25.753906c11.984375 14.375 18.542969 32.492188 18.542969 51.207032v67.039062h192v-71.777344c0-15.796875 4.671875-31.238281 13.441406-44.375zm0 0" fill="#ff826e"/><path d="m328 440h-64v48h64zm0 0" fill="#f0d0b4"/><path d="m128 288v24c0 22.089844 17.910156 40 40 40s40-17.910156 40-40v-24zm0 0" fill="#f0d0b4"/><path d="m128 311.976562c12.320312 5.152344 25.832031 8.023438 40 8.023438s27.679688-2.871094 40-8.023438v-23.976562h-80zm0 0" fill="#ecc19c"/><path d="m200 112 4.800781 6.398438c12.085938 16.113281 31.054688 25.601562 51.199219 25.601562v72c0 48.601562-39.398438 88-88 88s-88-39.398438-88-88v-72h56c25.183594 0 48.886719-11.855469 64-32zm0 0" fill="#f0d0b4"/><path d="m80 248c-17.671875 0-32-14.328125-32-32s14.328125-32 32-32h176c17.671875 0 32 14.328125 32 32s-14.328125 32-32 32zm0 0" fill="#f0d0b4"/><path d="m34.742188 341.257812c-1.0625.765626-2.15625 1.496094-3.167969 2.316407l.425781.425781 21.457031 25.753906c8.917969 10.703125 14.816407 23.476563 17.261719 37.03125l144.394531 81.214844h48.886719v-18.792969zm0 0" fill="#ffeaa7"/><path d="m264 440v48h16l-8-48zm0 0" fill="#ecc19c"/><path d="m282.550781 323.601562-66.550781-17.746093v-6.847657c17.65625-10.246093 31.777344-25.910156 40-44.761718v1.753906c22.054688 0 40-17.945312 40-40v-88c0-70.574219-57.425781-128-128-128s-128 57.425781-128 128v88c0 22.054688 17.945312 40 40 40v-1.742188c8.222656 18.847657 22.34375 34.511719 40 44.757813v6.847656l-66.550781 17.746094c-31.472657 8.390625-53.449219 37-53.449219 69.558594v102.832031h336v-102.832031c0-32.558594-21.976562-61.167969-53.449219-69.566407zm37.449219 69.566407v38.832031h-48v-15.785156c0-14.261719 4.175781-28.078125 12.097656-39.933594l16.742188-25.113281c11.824218 10.390625 19.160156 25.503906 19.160156 42zm-240 28.503906 103.6875 58.328125h-103.6875zm-2.128906-19.542969c-3.007813-13.695312-9.191406-26.609375-18.253906-37.503906l-.65625-.792969 197.039062 110.839844v5.328125h-39.695312zm183.105468-162.664062c1.902344-7.519532 3.023438-15.359375 3.023438-23.464844v-22.527344c9.289062 3.3125 16 12.113282 16 22.527344 0 11.527344-8.167969 21.167969-19.023438 23.464844zm-92.976562-223.464844c61.761719 0 112 50.238281 112 112v56.207031c-4.671875-3.535156-10.054688-6.183593-16-7.390625v-40.816406h-8c-17.535156 0-34.28125-8.375-44.808594-22.398438l-11.191406-14.9375-6.398438 8.527344c-13.53125 18.039063-35.066406 28.808594-57.601562 28.808594h-64v40.808594c-5.945312 1.214844-11.328125 3.855468-16 7.390625v-56.199219c0-61.761719 50.238281-112 112-112zm-112 200c0-10.414062 6.710938-19.214844 16-22.527344v22.527344c0 8.105469 1.121094 15.945312 3.023438 23.464844-10.855469-2.296875-19.023438-11.9375-19.023438-23.464844zm32 0v-64h48c24.039062 0 47.144531-10.015625 63.617188-27.214844 11.910156 14.984375 29.480468 24.621094 48.382812 26.765625v64.449219c0 44.113281-35.886719 80-80 80s-80-35.886719-80-80zm80 96c11.230469 0 21.976562-2.039062 32-5.601562v5.601562c0 17.648438-14.351562 32-32 32s-32-14.351562-32-32v-5.601562c10.023438 3.5625 20.769531 5.601562 32 5.601562zm-110.433594 27.054688 63.523438-16.933594c4.664062 21.613281 23.910156 37.878906 46.910156 37.878906s42.246094-16.265625 46.902344-37.878906l63.523437 16.933594c3.148438.839843 6.167969 1.960937 9.054688 3.296874l-16.703125 25.054688c-9.664063 14.488281-14.777344 31.378906-14.777344 48.808594v40.105468l-204.566406-115.0625c2.015625-.800781 4.007812-1.632812 6.132812-2.203124zm-26.558594 16.25 16.304688 19.558593c10.765625 12.929688 16.6875 29.296875 16.6875 46.097657v11.039062h-48v-38.832031c0-14.441407 5.6875-27.761719 15.007812-37.863281zm-15.007812 92.695312h48v32h-48zm256 32v-32h48v32zm0 0"/><path d="m216 232h-16c0 17.648438-14.351562 32-32 32s-32-14.351562-32-32h-16c0 26.472656 21.527344 48 48 48s48-21.527344 48-48zm0 0"/><path d="m128 176c0 4.417969-3.582031 8-8 8s-8-3.582031-8-8 3.582031-8 8-8 8 3.582031 8 8zm0 0"/><path d="m224 176c0 4.417969-3.582031 8-8 8s-8-3.582031-8-8 3.582031-8 8-8 8 3.582031 8 8zm0 0"/><path d="m208 376h32v16h-32zm0 0"/></svg>