<svg height="496pt" viewBox="-64 0 496 496" width="496pt" xmlns="http://www.w3.org/2000/svg"><path d="m328 80c-17.671875 0-32 14.328125-32 32v-48c0-17.671875-14.328125-32-32-32s-32 14.328125-32 32v-24c0-17.671875-14.328125-32-32-32s-32 14.328125-32 32v40c0-17.671875-14.328125-32-32-32s-32 14.328125-32 32v168l-31-68.199219c-5.480469-12.058593-17.503906-19.800781-30.753906-19.800781h-.460938c-18.65625 0-33.785156 15.128906-33.785156 33.785156 0 4.109375.753906 8.183594 2.214844 12.023438l61.785156 162.191406v24h256v-24l18.488281-36.976562c8.886719-17.765626 13.511719-37.367188 13.511719-57.238282v-161.785156c0-17.671875-14.328125-32-32-32zm0 0" fill="#5cd6b3"/><g fill="#37bc9b"><path d="m248 40c0-1.167969-.097656-2.320312-.175781-3.464844-9.433594 5.570313-15.824219 15.722656-15.824219 27.464844v112h16zm0 0"/><path d="m312 88c0-1.167969-.097656-2.320312-.175781-3.464844-9.433594 5.570313-15.824219 15.722656-15.824219 27.464844v64h16zm0 0"/><path d="m184 16c0-1.167969-.097656-2.320312-.175781-3.464844-9.433594 5.570313-15.824219 15.722656-15.824219 27.464844v136h16zm0 0"/></g><path d="m104 136h256v64h-256zm0 0" fill="#fcd770"/><path d="m328 488h-256c-8.839844 0-16-7.160156-16-16v-64c0-8.839844 7.160156-16 16-16h256c8.839844 0 16 7.160156 16 16v64c0 8.839844-7.160156 16-16 16zm0 0" fill="#37bc9b"/><path d="m168 392h-96c-8.839844 0-16 7.160156-16 16v64c0 8.839844 7.160156 16 16 16h96l32-48zm0 0" fill="#5cd6b3"/><path d="m280 488 32-48-32-48h-56l32 48-32 48zm0 0" fill="#48cfad"/><path d="m144 456h-40c-8.839844 0-16-7.160156-16-16s7.160156-16 16-16h40l8 16zm0 0" fill="#e6e9ed"/><path d="m332 360h-263.046875l3.046875 8v24h256v-24zm0 0" fill="#e6e9ed"/><path d="m72 376h256v16h-256zm0 0" fill="#ccd1d9"/><path d="m86.222656 208.886719-13.222656-29.085938c-5.480469-12.058593-17.503906-19.800781-30.753906-19.800781h-.460938c-18.65625 0-33.785156 15.128906-33.785156 33.785156 0 4.109375.753906 8.183594 2.214844 12.023438l12.5625 32.960937 1.222656 1.230469zm0 0" fill="#e6e9ed"/><path d="m328 72c-9.039062 0-17.296875 3.128906-24 8.207031v-16.207031c0-22.054688-17.945312-40-40-40-9.375 0-17.894531 3.375-24.726562 8.808594-3.410157-18.625-19.679688-32.808594-39.273438-32.808594-22.054688 0-40 17.945312-40 40v8.207031c-6.703125-5.078125-14.960938-8.207031-24-8.207031-22.054688 0-40 17.945312-40 40v131.070312l-15.710938-34.574218c-6.769531-14.878906-21.695312-24.496094-38.503906-24.496094-23.042968 0-41.785156 18.742188-41.785156 41.785156 0 5.101563.921875 10.109375 2.734375 14.871094l61.265625 160.816406v16c-9.289062 3.3125-16 12.113282-16 22.527344v64c0 13.230469 10.769531 24 24 24h256c13.230469 0 24-10.769531 24-24v-64c0-10.414062-6.710938-19.214844-16-22.527344v-15.585937l17.648438-35.285157c9.382812-18.777343 14.351562-39.808593 14.351562-60.816406v-161.785156c0-22.054688-17.945312-40-40-40zm-64-32c13.230469 0 24 10.769531 24 24v64h-48v-64c0-13.230469 10.769531-24 24-24zm24 152h-48v-48h48zm16-48h48v48h-48zm-192 48v-48h48v48zm64-48h48v48h-48zm0-104c0-13.230469 10.769531-24 24-24s24 10.769531 24 24v88h-48zm-64 40c0-13.230469 10.769531-24 24-24s24 10.769531 24 24v48h-48zm-96 113.785156c0-14.21875 11.566406-25.785156 26.246094-25.785156 10.089844 0 19.304687 5.9375 23.472656 15.121094l10.035156 22.0625-48.058594 24.03125-10-26.253906c-1.128906-2.945313-1.695312-6.03125-1.695312-9.175782zm64 174.214844h240v16h-240zm139.71875 32 26.664062 40-26.664062 40h-36.765625l26.664063-40-26.664063-40zm45.898438 40-26.664063-40h36.765625l26.664062 40-26.664062 40h-36.765625zm-201.617188 32v-64c0-4.40625 3.59375-8 8-8h91.71875l26.664062 40-26.664062 40h-91.71875c-4.40625 0-8-3.59375-8-8zm272 0c0 4.40625-3.59375 8-8 8h-33.054688l26.664063-40-26.664063-40h33.054688c4.40625 0 8 3.59375 8 8zm16-198.214844c0 18.535156-4.375 37.085938-12.664062 53.664063l-12.28125 24.550781h-252.589844l-41.058594-107.761719 48.960938-24.476562 13.632812 29.964843v6.273438h16v-48h240zm-48-145.785156v-16c0-13.230469 10.769531-24 24-24s24 10.769531 24 24v16zm0 0"/><path d="m148.945312 416h-44.945312c-13.230469 0-24 10.769531-24 24s10.769531 24 24 24h44.945312l12-24zm-9.890624 32h-35.054688c-4.40625 0-8-3.59375-8-8s3.59375-8 8-8h35.054688l4 8zm0 0"/><path d="m128 160h16v16h-16zm0 0"/><path d="m192 160h16v16h-16zm0 0"/><path d="m256 160h16v16h-16zm0 0"/><path d="m320 160h16v16h-16zm0 0"/></svg>