<svg height="496pt" viewBox="-56 0 496 496" width="496pt" xmlns="http://www.w3.org/2000/svg"><path d="m72 8h176v112h-176zm0 0" fill="#5cd6b3"/><path d="m184 8h64v112h-64zm0 0" fill="#37bc9b"/><path d="m232 120v224l-108.230469 121.769531c-12.578125 14.132813-30.59375 22.230469-49.523437 22.230469-36.582032 0-66.246094-29.664062-66.246094-66.246094v-2.3125c0-17.570312 6.976562-34.425781 19.40625-46.847656l60.59375-60.59375v-192zm0 0" fill="#ffeaa7"/><path d="m200 232h-80l40-64zm0 0" fill="#fcd770"/><path d="m72 56h176v32h-176zm0 0" fill="#e6e9ed"/><path d="m32 392c-5.480469 0-10.832031.550781-16 1.601562l-3.761719 2.726563c-2.734375 7.328125-4.238281 15.136719-4.238281 23.113281v2.3125c0 36.582032 29.664062 66.246094 66.246094 66.246094 13.546875 0 26.59375-4.207031 37.546875-11.753906.070312-1.414063.207031-2.8125.207031-4.246094 0-44.183594-35.816406-80-80-80zm0 0" fill="#5cd6b3"/><path d="m200 136v169.375l-55.902344 55.90625c-15.546875 15.535156-24.097656 36.199219-24.097656 58.167969v2.304687c0 13.628906 3.382812 26.46875 9.28125 37.804688l102.71875-115.558594v-224h-32zm0 0" fill="#fcd770"/><path d="m232 272c-39.769531 0-72 32.230469-72 72 0 21.320312 9.273438 40.480469 24 53.664062l.199219.113282 47.800781-53.777344zm0 0" fill="#5cd6b3"/><path d="m200 305.375-39.929688 39.929688c.378907 20.792968 9.503907 39.449218 23.929688 52.359374l.199219.113282 47.800781-53.777344v-72c-11.511719 0-22.351562 2.769531-32 7.574219zm0 0" fill="#37bc9b"/><path d="m200 8h176v112h-176zm0 0" fill="#5cd6b3"/><path d="m360 120v224l-108.230469 121.769531c-12.578125 14.132813-30.59375 22.230469-49.523437 22.230469-36.582032 0-66.246094-29.664062-66.246094-66.246094v-2.3125c0-17.570312 6.976562-34.425781 19.40625-46.847656l60.59375-60.59375v-192zm0 0" fill="#ffeaa7"/><path d="m360 272c-39.769531 0-72 32.230469-72 72 0 21.320312 9.273438 40.480469 24 53.664062l.199219.113282 47.800781-53.777344zm0 0" fill="#5cd6b3"/><path d="m328 232h-80l40-64zm0 0" fill="#fcd770"/><path d="m200 56h176v32h-176zm0 0" fill="#e6e9ed"/><path d="m160 392c-5.480469 0-10.832031.550781-16 1.601562l-3.761719 2.726563c-2.734375 7.328125-4.238281 15.136719-4.238281 23.113281v2.3125c0 36.582032 29.664062 66.246094 66.246094 66.246094 13.546875 0 26.59375-4.207031 37.546875-11.753906.070312-1.414063.207031-2.8125.207031-4.246094 0-44.183594-35.816406-80-80-80zm0 0" fill="#5cd6b3"/><path d="m184 56h16v32h-16zm0 0" fill="#ccd1d9"/><path d="m384 0h-320v128h16v180.6875l-58.257812 58.25c-14.023438 14.03125-21.742188 32.679688-21.742188 52.511719v2.304687c0 40.941406 33.3125 74.246094 74.246094 74.246094 16.371094 0 32.128906-5.472656 44.960937-15.246094l.351563.03125c.007812-.113281.007812-.226562.015625-.335937 3.632812-2.800781 7.074219-5.898438 10.160156-9.378907l9.335937-10.503906c13.097657 21.21875 36.480469 35.433594 63.175782 35.433594 16.371094 0 32.128906-5.472656 44.960937-15.246094l.351563.03125c.007812-.113281.007812-.226562.015625-.335937 3.632812-2.800781 7.074219-5.898438 10.160156-9.378907l110.265625-124.03125v-219.039062h16zm-16 16v32h-160v-32zm-199.808594 332.496094c-.101562-1.496094-.191406-2.992188-.191406-4.496094 0-26.617188 16.023438-49.742188 40-59.34375v24.03125zm23.808594-236.496094h-112v-16h112zm-112-32v-16h112v16zm128-16h160v16h-160zm-16-48v32h-112v-32zm-176 405.753906v-2.304687c0-6.28125 1.03125-12.402344 2.9375-18.210938 4.300781-.78125 8.679688-1.238281 13.0625-1.238281 39.632812 0 71.878906 32.191406 71.992188 71.800781-8.921876 5.296875-19.167969 8.199219-29.746094 8.199219-32.117188 0-58.246094-26.136719-58.246094-58.246094zm102.953125 37.390625c-6.257813-42.433593-42.808594-75.144531-86.953125-75.144531-1.359375 0-2.710938.144531-4.0625.199219 1.574219-2.070313 3.253906-4.078125 5.125-5.953125l62.9375-62.933594v-187.3125h112v101.703125l-48-76.800781-54.433594 87.097656h102.433594v27.671875c-33.273438 10.367187-56 40.886719-56 76.328125 0 6.273438.777344 12.449219 2.199219 18.480469l-4.464844 4.457031c-14.015625 14.03125-21.734375 32.679688-21.734375 52.511719v2.304687c0 8.046875 1.328125 15.78125 3.703125 23.039063zm66.613281-235.144531h-51.132812l25.566406-40.902344zm-41.566406 197.753906v-2.304687c0-6.28125 1.03125-12.402344 2.9375-18.210938 4.300781-.78125 8.679688-1.238281 13.0625-1.238281 39.632812 0 71.878906 32.191406 71.992188 71.800781-8.921876 5.296875-19.167969 8.199219-29.746094 8.199219-32.109375 0-58.246094-26.136719-58.246094-58.246094zm167.871094-35.640625c-10.136719-11.609375-15.871094-26.554687-15.871094-42.113281 0-32.574219 24.480469-59.488281 56-63.449219v60.410157zm40.128906-121.707031c-40.367188 4.035156-72 38.1875-72 79.59375 0 20.121094 7.648438 39.449219 21.167969 54.152344l-54.214844 60.992187c-6.257813-42.433593-42.808594-75.144531-86.953125-75.144531-1.359375 0-2.710938.144531-4.0625.199219 1.574219-2.070313 3.253906-4.078125 5.125-5.953125l62.9375-62.933594v-187.3125h128zm-144-152.40625v-16h160v16zm0 0"/><path d="m342.433594 240-54.433594-87.097656-54.433594 87.097656zm-28.867188-16h-51.132812l25.566406-40.902344zm0 0"/></svg>