<svg height="496pt" viewBox="0 0 496 496" width="496pt" xmlns="http://www.w3.org/2000/svg"><path d="m160 248v240h176v-240zm144 16v80h-112v-80zm-112 192v-80h112v80zm0 0" fill="#969faa"/><path d="m408 264h-320c-8.839844 0-16-7.160156-16-16v-224c0-8.839844 7.160156-16 16-16h320c8.839844 0 16 7.160156 16 16v224c0 8.839844-7.160156 16-16 16zm0 0" fill="#cf9e76"/><path d="m104 40h288v192h-288zm0 0" fill="#ffeaa7"/><path d="m104 40h288v96h-288zm0 0" fill="#fcd770"/><g fill="#ffc729"><path d="m168 88c0 8.835938-7.164062 16-16 16s-16-7.164062-16-16 7.164062-16 16-16 16 7.164062 16 16zm0 0"/><path d="m168 184c0 8.835938-7.164062 16-16 16s-16-7.164062-16-16 7.164062-16 16-16 16 7.164062 16 16zm0 0"/><path d="m232 88c0 8.835938-7.164062 16-16 16s-16-7.164062-16-16 7.164062-16 16-16 16 7.164062 16 16zm0 0"/><path d="m232 184c0 8.835938-7.164062 16-16 16s-16-7.164062-16-16 7.164062-16 16-16 16 7.164062 16 16zm0 0"/><path d="m296 88c0 8.835938-7.164062 16-16 16s-16-7.164062-16-16 7.164062-16 16-16 16 7.164062 16 16zm0 0"/><path d="m296 184c0 8.835938-7.164062 16-16 16s-16-7.164062-16-16 7.164062-16 16-16 16 7.164062 16 16zm0 0"/><path d="m360 88c0 8.835938-7.164062 16-16 16s-16-7.164062-16-16 7.164062-16 16-16 16 7.164062 16 16zm0 0"/><path d="m360 184c0 8.835938-7.164062 16-16 16s-16-7.164062-16-16 7.164062-16 16-16 16 7.164062 16 16zm0 0"/></g><path d="m160 264h32v16h-32zm0 0" fill="#838f9b"/><path d="m304 264h32v16h-32zm0 0" fill="#838f9b"/><path d="m408 0h-320c-13.230469 0-24 10.769531-24 24v224c0 13.230469 10.769531 24 24 24h64v224h192v-224h64c13.230469 0 24-10.769531 24-24v-224c0-13.230469-10.769531-24-24-24zm-240 272h16v208h-16zm128 96h-96v-16h96zm-16.96875 16-31.03125 22.167969-31.03125-22.167969zm-79.03125 7.542969 34.230469 24.457031-34.230469 24.457031zm48 34.289062 31.03125 22.167969h-62.070312zm48 14.625-34.230469-24.457031 34.230469-24.457031zm-16.96875-104.457031h-62.070312l31.039062-22.167969zm-17.261719-32 34.230469-24.457031v48.90625zm-61.769531 24.457031v-48.90625l34.230469 24.449219zm0 135.542969h96v16h-96zm48-169.832031-31.03125-22.167969h62.070312zm80 185.832031h-16v-208h16zm88-232c0 4.40625-3.585938 8-8 8h-320c-4.414062 0-8-3.59375-8-8v-224c0-4.40625 3.585938-8 8-8h320c4.414062 0 8 3.59375 8 8zm0 0"/><path d="m96 240h304v-208h-304zm16-16v-80h272v80zm272-176v80h-272v-80zm0 0"/><path d="m0 128h48v16h-48zm0 0"/><path d="m6.128906 192.535156 47.539063-14.515625 4.671875 15.300781-47.539063 14.515626zm0 0"/><path d="m437.652344 193.351562 4.664062-15.304687 47.542969 14.496094-4.664063 15.300781zm0 0"/><path d="m448 128h48v16h-48zm0 0"/><path d="m437.65625 78.640625 47.535156-14.515625 4.671875 15.304688-47.535156 14.511718zm0 0"/><path d="m6.117188 79.46875 4.667968-15.304688 47.539063 14.492188-4.664063 15.304688zm0 0"/><path d="m152 112c13.230469 0 24-10.769531 24-24s-10.769531-24-24-24-24 10.769531-24 24 10.769531 24 24 24zm0-32c4.414062 0 8 3.59375 8 8s-3.585938 8-8 8-8-3.59375-8-8 3.585938-8 8-8zm0 0"/><path d="m152 160c-13.230469 0-24 10.769531-24 24s10.769531 24 24 24 24-10.769531 24-24-10.769531-24-24-24zm0 32c-4.414062 0-8-3.59375-8-8s3.585938-8 8-8 8 3.59375 8 8-3.585938 8-8 8zm0 0"/><path d="m216 112c13.230469 0 24-10.769531 24-24s-10.769531-24-24-24-24 10.769531-24 24 10.769531 24 24 24zm0-32c4.414062 0 8 3.59375 8 8s-3.585938 8-8 8-8-3.59375-8-8 3.585938-8 8-8zm0 0"/><path d="m216 160c-13.230469 0-24 10.769531-24 24s10.769531 24 24 24 24-10.769531 24-24-10.769531-24-24-24zm0 32c-4.414062 0-8-3.59375-8-8s3.585938-8 8-8 8 3.59375 8 8-3.585938 8-8 8zm0 0"/><path d="m280 112c13.230469 0 24-10.769531 24-24s-10.769531-24-24-24-24 10.769531-24 24 10.769531 24 24 24zm0-32c4.414062 0 8 3.59375 8 8s-3.585938 8-8 8-8-3.59375-8-8 3.585938-8 8-8zm0 0"/><path d="m280 160c-13.230469 0-24 10.769531-24 24s10.769531 24 24 24 24-10.769531 24-24-10.769531-24-24-24zm0 32c-4.414062 0-8-3.59375-8-8s3.585938-8 8-8 8 3.59375 8 8-3.585938 8-8 8zm0 0"/><path d="m344 112c13.230469 0 24-10.769531 24-24s-10.769531-24-24-24-24 10.769531-24 24 10.769531 24 24 24zm0-32c4.414062 0 8 3.59375 8 8s-3.585938 8-8 8-8-3.59375-8-8 3.585938-8 8-8zm0 0"/><path d="m344 160c-13.230469 0-24 10.769531-24 24s10.769531 24 24 24 24-10.769531 24-24-10.769531-24-24-24zm0 32c-4.414062 0-8-3.59375-8-8s3.585938-8 8-8 8 3.59375 8 8-3.585938 8-8 8zm0 0"/></svg>