<svg height="503pt" viewBox="0 -3 503.632 503" width="503pt" xmlns="http://www.w3.org/2000/svg"><path d="m307.816406 408.316406v80h184l-16-40 16-40zm0 0" fill="#5cd6b3"/><path d="m195.816406 456.316406v32h-184l16-40-16-40h184zm0 0" fill="#5cd6b3"/><path d="m387.816406 408.316406h-80v80h35.785156l44.214844-22.113281zm0 0" fill="#37bc9b"/><path d="m115.816406 466.203125 44.214844 22.113281h35.785156v-80h-80zm0 0" fill="#37bc9b"/><path d="m131.816406 376.316406h240v80h-240zm0 0" fill="#5cd6b3"/><path d="m159.847656 376.316406c24.039063 22.734375 54.113282 39.527344 88.304688 47.574219l3.664062.867187 3.664063-.859374c34.199219-8.046876 64.261719-24.839844 88.304687-47.574219h-183.9375zm0 0" fill="#37bc9b"/><path d="m339.816406 72.316406v32h-48v-32h-80v32h-48v-32h-48v164.289063c0 81.855469 56.3125 152.957031 136 171.710937 79.6875-18.753906 136-89.855468 136-171.710937v-164.289063zm0 0" fill="#ff826e"/><path d="m355.816406 240.316406c0 57.4375-46.5625 104-104 104s-104-46.5625-104-104 46.5625-104 104-104 104 46.5625 104 104zm0 0" fill="#e6e9ed"/><path d="m195.816406 456.316406h-64l64 32zm0 0" fill="#fcd770"/><path d="m307.816406 456.316406h64l-64 32zm0 0" fill="#fcd770"/><g fill="#656d78"><path d="m275.816406 272.316406h-48l-8-40 32-24 32 24zm0 0"/><path d="m251.816406 136.316406c-15.105468 0-29.425781 3.289063-42.375 9.085938l10.375 6.914062 32 24 32-24 10.375-6.914062c-12.953125-5.796875-27.269531-9.085938-42.375-9.085938zm0 0"/><path d="m171.816406 176.316406-1.0625-1.0625c-14.320312 17.8125-22.9375 40.421875-22.9375 65.0625 0 2.632813.199219 5.214844.390625 7.800782l47.609375-23.800782zm0 0"/><path d="m226.761719 341.148438-14.945313-44.832032h-47.542968c14.132812 22.054688 36.351562 38.351563 62.488281 44.832032zm0 0"/><path d="m355.425781 248.117188c.191407-2.585938.390625-5.167969.390625-7.800782 0-24.71875-8.664062-47.402344-23.0625-65.242187l-.9375 1.242187-24 48zm0 0"/><path d="m276.871094 341.148438c26.136718-6.480469 48.351562-22.777344 62.488281-44.832032h-47.542969zm0 0"/></g><path d="m503.632812 400.316406h-123.816406v-32h-39.304687c34.457031-33.710937 55.304687-80.496094 55.304687-131.710937v-172.289063h-64v32h-32v-32h-96v32h-32v-32h-64v172.289063c0 51.214843 20.847656 98 55.304688 131.710937h-39.304688v32h-123.816406l19.191406 48-19.191406 48h203.816406v-32h96v32h203.816406l-19.191406-48zm-379.816406-163.710937v-156.289063h32v32h64v-32h64v32h64v-32h32v156.289063c0 77.894531-52.535156 144.855469-128 163.488281-75.464844-18.625-128-85.59375-128-163.488281zm57.886719 147.710937c19.832031 14.785156 42.863281 25.808594 68.28125 31.792969l1.832031.421875 1.832032-.429688c25.414062-5.976562 48.449218-17.007812 68.28125-31.792968h41.886718v64h-224v-64h41.886719zm-158.070313 32h100.183594v44.945313l38.113282 19.054687h-138.296876l12.808594-32zm164.183594 59.054688-22.113281-11.054688h22.113281zm150.113282-11.054688-22.113282 11.054688v-11.054688zm142.070312 16h-138.296875l38.113281-19.054687v-44.945313h100.183594l-12.808594 32zm0 0"/><path d="m251.816406 352.316406c61.757813 0 112-50.242187 112-112 0-61.761718-50.242187-112-112-112-61.761718 0-112 50.238282-112 112 0 61.757813 50.238282 112 112 112zm-55.382812-119.367187 16.445312 5.480469 6.441406 32.199218-11.785156 17.6875h-38.726562c-6.214844-10.710937-10.410156-22.703125-12.082032-35.511718zm-40.363282 2.292969c.867188-16.351563 5.800782-31.597657 13.867188-44.789063l15.140625 30.285156zm95.746094-16.925782 23.167969 17.375-5.71875 28.625h-34.890625l-5.71875-28.625zm55.382813 14.632813 39.710937 19.855469c-1.671875 12.800781-5.863281 24.800781-12.078125 35.511718h-38.726562l-11.792969-17.679687 6.441406-32.199219zm11.351562-12.210938 15.144531-30.285156c8.066407 13.191406 13.007813 28.4375 13.863282 44.789063zm-138.085937 83.578125h25.582031l8.097656 24.28125c-12.960937-5.554687-24.390625-13.9375-33.679687-24.28125zm52.488281 30.121094-12.3125-36.9375 11.457031-17.183594h39.4375l11.457032 17.183594-12.3125 36.9375c-6.105469 1.214844-12.40625 1.878906-18.863282 1.878906-6.457031 0-12.761718-.664062-18.863281-1.878906zm56.535156-5.839844 8.097657-24.28125h25.582031c-9.289063 10.34375-20.71875 18.726563-33.679688 24.28125zm33.488281-152.488281-20.839843 41.671875-16.871094 5.621094-25.449219-19.085938v-24.160156l33.09375-26.472656c11.457032 5.464844 21.648438 13.105468 30.066406 22.425781zm-47.738281-28.785156-23.421875 18.75-23.425781-18.742188c7.511719-1.894531 15.328125-3.015625 23.425781-3.015625 8.09375 0 15.910156 1.121094 23.421875 3.007813zm-64.519531 6.359375 33.097656 26.472656v24.160156l-25.449218 19.085938-16.871094-5.621094-20.839844-41.671875c8.414062-9.320313 18.609375-16.960937 30.0625-22.425781zm0 0"/><path d="m427.816406 312.316406h16v16h-16zm0 0"/><path d="m411.816406 328.316406h16v16h-16zm0 0"/><path d="m427.816406 344.316406h16v16h-16zm0 0"/><path d="m443.816406 328.316406h16v16h-16zm0 0"/><path d="m59.816406 16.316406h16v16h-16zm0 0"/><path d="m43.816406 32.316406h16v16h-16zm0 0"/><path d="m59.816406 48.316406h16v16h-16zm0 0"/><path d="m75.816406 32.316406h16v16h-16zm0 0"/><path d="m443.816406.316406h16v24h-16zm0 0"/><path d="m412.21875 20.042969 11.3125-11.3125 16.972656 16.96875-11.316406 11.3125zm0 0"/><path d="m403.816406 40.316406h24v16h-24zm0 0"/><path d="m412.222656 76.597656 16.96875-16.96875 11.316406 11.3125-16.972656 16.972656zm0 0"/><path d="m443.816406 72.316406h16v24h-16zm0 0"/><path d="m463.128906 70.945312 11.3125-11.316406 16.96875 16.972656-11.3125 11.3125zm0 0"/><path d="m475.816406 40.316406h24v16h-24zm0 0"/><path d="m463.125 25.691406 16.96875-16.972656 11.3125 11.316406-16.96875 16.96875zm0 0"/><path d="m43.816406 264.316406h16v24h-16zm0 0"/><path d="m12.21875 284.039062 11.316406-11.316406 16.96875 16.972656-11.3125 11.3125zm0 0"/><path d="m3.816406 304.316406h24v16h-24zm0 0"/><path d="m12.222656 340.59375 16.972656-16.96875 11.3125 11.3125-16.96875 16.96875zm0 0"/><path d="m43.816406 336.316406h16v24h-16zm0 0"/><path d="m63.128906 334.9375 11.3125-11.3125 16.972656 16.96875-11.316406 11.316406zm0 0"/><path d="m75.816406 304.316406h24v16h-24zm0 0"/><path d="m63.125 289.6875 16.96875-16.972656 11.316406 11.316406-16.972656 16.96875zm0 0"/></svg>