<svg height="496pt" viewBox="0 0 496 496" width="496pt" xmlns="http://www.w3.org/2000/svg"><path d="m184 232h-176v80c26.511719 0 48 21.488281 48 48s-21.488281 48-48 48v80h480v-80c-26.511719 0-48-21.488281-48-48s21.488281-48 48-48v-80zm0 0" fill="#ffeaa7"/><path d="m88 424h256v32h-256zm0 0" fill="#fcd770"/><path d="m488 408c-26.511719 0-48-21.488281-48-48s21.488281-48 48-48v-80h-112v256h112zm0 0" fill="#48cfad"/><path d="m56 360c0 12.3125-4.671875 23.503906-12.296875 32h332.296875v-96h-368v16c26.511719 0 48 21.488281 48 48zm0 0" fill="#fcd770"/><path d="m184 232h-23.457031c23.664062 19.9375 54.160156 32 87.457031 32s63.792969-12.0625 87.457031-32zm0 0" fill="#fcd770"/><path d="m368 128c0 66.273438-53.726562 120-120 120s-120-53.726562-120-120 53.726562-120 120-120 120 53.726562 120 120zm0 0" fill="#e6e9ed"/><g fill="#656d78"><path d="m272 160h-48l-8-40 32-24 32 24zm0 0"/><path d="m152.0625 56.128906c-15.039062 20.046875-24.0625 44.878906-24.0625 71.871094l48-24zm0 0"/><path d="m214.632812 243.199219-14.632812-51.199219h-53.382812c15.488281 24.488281 39.542968 42.96875 68.015624 51.199219zm0 0"/><path d="m248.398438 55.601562 46.007812-38.28125c-14.269531-5.992187-29.949219-9.320312-46.40625-9.320312-16.449219 0-32.121094 3.328125-46.390625 9.3125zm0 0"/><path d="m296 192-15.34375 51.382812c28.777344-8.136718 53.105469-26.6875 68.726562-51.382812zm0 0"/><path d="m328 104 40 24c0-26.984375-9.015625-51.808594-24.046875-71.847656zm0 0"/></g><path d="m488 320h8v-96h-163.625c26.679688-23.472656 43.625-57.761719 43.625-96 0-70.574219-57.425781-128-128-128s-128 57.425781-128 128c0 38.238281 16.945312 72.527344 43.625 96h-163.625v96h8c22.054688 0 40 17.945312 40 40s-17.945312 40-40 40h-8v96h496v-96h-8c-22.054688 0-40-17.945312-40-40s17.945312-40 40-40zm-311.640625-207.238281 32.648437 13.054687 6.449219 32.238282-19.457031 25.945312h-44.847656c-8.816406-15.183594-14.113282-32.585938-14.914063-51.175781zm-39.480469 1.855469c1.839844-15.351563 6.800782-29.722657 14.226563-42.527344l14.167969 28.335937zm111.121094-8.617188 23.167969 17.375-5.726563 28.625h-34.882812l-5.726563-28.625zm79.039062 6.753906 32.738282 19.644532c-.738282 18.753906-6.050782 36.304687-14.929688 51.609374h-44.847656l-19.449219-25.9375 6.394531-31.941406zm19.265626-38.363281c6.464843 11.808594 10.757812 24.9375 12.605468 38.824219l-21.285156-12.765625zm-152.335938 125.609375 8.664062 30.304688c-15.640624-6.96875-29.402343-17.367188-40.296874-30.304688zm27.085938 36.585938-12.269532-42.96875 19.214844-25.617188h40l19.214844 25.617188-12.269532 42.96875c-8.648437 2.148437-17.640624 3.414062-26.945312 3.414062s-18.296875-1.265625-26.945312-3.414062zm80.976562-36.585938h31.632812c-10.886718 12.9375-24.65625 23.34375-40.296874 30.304688zm32.992188-142.359375-13.34375 40.039063-40.222657 13.410156-25.457031-19.089844v-32.3125l39.574219-32.933594c15.371093 7.253906 28.859375 17.8125 39.449219 30.886719zm-56.6875-37.351563-29.976563 24.933594-30.527344-24.984375c9.609375-2.6875 19.703125-4.238281 30.167969-4.238281 10.527344 0 20.671875 1.558594 30.335938 4.289062zm-77.855469 6.4375 39.519531 32.335938v32.9375l-25.199219 18.902344-33.007812-13.199219-20.34375-40.6875c10.519531-12.808594 23.878906-23.144531 39.03125-30.289063zm-14.3125 213.273438c18.34375 10.167969 39.40625 16 61.832031 16s43.488281-5.832031 61.832031-16h58.167969v48h-352v-48zm-170.167969 64.566406v-.566406h352v80h-309.433594c3.472656-7.28125 5.433594-15.414062 5.433594-24 0-28.167969-20.894531-51.535156-48-55.433594zm0 110.867188c12.472656-1.792969 23.59375-7.738282 32-16.34375v.910156h320v80h-352zm416-55.433594c0 28.167969 20.894531 51.535156 48 55.433594v64.566406h-96v-240h96v64.566406c-27.105469 3.898438-48 27.265625-48 55.433594zm0 0"/><path d="m80 416v48h272v-48zm256 32h-240v-16h240zm0 0"/><path d="m80 320h272v16h-272zm0 0"/><path d="m336 352h16v16h-16zm0 0"/><path d="m112 352h208v16h-208zm0 0"/><path d="m80 352h16v16h-16zm0 0"/></svg>